STARTFONT 2.1
FONT tvsys28b
SIZE 20 72 72
FONTBOUNDINGBOX 15 21 0 0
COMMENT "Generated by fontforge, http://fontforge.sourceforge.net"
STARTPROPERTIES 8
POINT_SIZE 200
WEIGHT 10
RESOLUTION 99
RESOLUTION_X 72
RESOLUTION_Y 72
X_HEIGHT 0
QUAD_WIDTH 15
_XMBDFED_INFO "Edited with xmbdfed 4.4."
ENDPROPERTIES
CHARS 256
STARTCHAR char0
ENCODING 0
SWIDTH 750 0
DWIDTH 15 0
BBX 0 0 0 0
BITMAP
ENDCHAR
STARTCHAR char1
ENCODING 1
SWIDTH 750 0
DWIDTH 15 0
BBX 12 19 1 2
BITMAP
0030
1FB0
3FE0
70E0
61E0
61E0
6360
6360
6660
6660
6660
6C60
6C60
7860
7860
70E0
7FC0
DF80
C000
ENDCHAR
STARTCHAR char2
ENCODING 2
SWIDTH 750 0
DWIDTH 15 0
BBX 10 17 2 3
BITMAP
3F00
7F80
E1C0
C0C0
C0C0
C1C0
C3C0
C6C0
CCC0
D8C0
F0C0
E0C0
C0C0
C0C0
E1C0
7F80
3F00
ENDCHAR
STARTCHAR char3
ENCODING 3
SWIDTH 750 0
DWIDTH 15 0
BBX 10 17 2 3
BITMAP
3F00
7F80
E1C0
C0C0
C0C0
C0C0
CCC0
CCC0
CCC0
CCC0
CCC0
C0C0
C0C0
C0C0
E1C0
7F80
3F00
ENDCHAR
STARTCHAR char4
ENCODING 4
SWIDTH 750 0
DWIDTH 15 0
BBX 10 17 2 3
BITMAP
3F00
7F80
E1C0
C0C0
C0C0
C0C0
C0C0
C1C0
C3C0
C6C0
CCC0
D8C0
F0C0
E0C0
E1C0
7F80
3F00
ENDCHAR
STARTCHAR char5
ENCODING 5
SWIDTH 750 0
DWIDTH 15 0
BBX 10 17 2 3
BITMAP
3F00
7F80
E1C0
C3C0
C3C0
C6C0
C6C0
CCC0
CCC0
CCC0
D8C0
D8C0
F0C0
F0C0
E1C0
7F80
3F00
ENDCHAR
STARTCHAR char6
ENCODING 6
SWIDTH 750 0
DWIDTH 15 0
BBX 8 17 3 3
BITMAP
3C
7E
E7
C3
C3
C3
C3
C3
C3
C3
C3
C3
C3
C3
E7
7E
3C
ENDCHAR
STARTCHAR char7
ENCODING 7
SWIDTH 750 0
DWIDTH 15 0
BBX 8 8 4 7
BITMAP
3C
7E
FF
FF
FF
FF
7E
3C
ENDCHAR
STARTCHAR char8
ENCODING 8
SWIDTH 750 0
DWIDTH 15 0
BBX 10 17 2 3
BITMAP
3F00
7F80
E1C0
C0C0
C0C0
C0C0
C0C0
C0C0
C0C0
C0C0
C0C0
C0C0
C0C0
C0C0
E1C0
7F80
3F00
ENDCHAR
STARTCHAR char9
ENCODING 9
SWIDTH 650 0
DWIDTH 13 0
BBX 11 11 2 6
BITMAP
0E00
3180
4040
4040
8020
8020
8020
4040
4040
3180
0E00
ENDCHAR
STARTCHAR char10
ENCODING 10
SWIDTH 750 0
DWIDTH 15 0
BBX 0 0 0 0
BITMAP
ENDCHAR
STARTCHAR char11
ENCODING 11
SWIDTH 750 0
DWIDTH 15 0
BBX 12 17 1 3
BITMAP
3FC0
7FE0
F070
C030
C030
C030
C030
C030
C030
C030
C030
C030
C030
C030
F070
7FE0
3FC0
ENDCHAR
STARTCHAR char12
ENCODING 12
SWIDTH 750 0
DWIDTH 15 0
BBX 12 17 1 3
BITMAP
7FE0
FFF0
C030
C030
C030
C030
C030
C030
C030
C030
C030
C030
C030
C030
C030
FFF0
7FE0
ENDCHAR
STARTCHAR char13
ENCODING 13
SWIDTH 750 0
DWIDTH 15 0
BBX 12 17 1 3
BITMAP
3FC0
7FE0
E070
C030
C030
C030
C030
C030
C030
C030
C030
C030
C030
C030
E070
7FE0
3FC0
ENDCHAR
STARTCHAR char14
ENCODING 14
SWIDTH 750 0
DWIDTH 15 0
BBX 10 17 2 3
BITMAP
1E00
7F80
6180
C1C0
C2C0
C2C0
C4C0
C4C0
C8C0
C8C0
C8C0
D0C0
D0C0
E0C0
6180
7F80
1E00
ENDCHAR
STARTCHAR char15
ENCODING 15
SWIDTH 700 0
DWIDTH 14 0
BBX 14 19 0 2
BITMAP
FFFC
FFFC
FFFC
FFFC
FFFC
FFFC
FFFC
FFFC
FFFC
FFFC
FFFC
FFFC
FFFC
FFFC
FFFC
FFFC
FFFC
FFFC
FFFC
ENDCHAR
STARTCHAR char16
ENCODING 16
SWIDTH 750 0
DWIDTH 15 0
BBX 10 17 2 3
BITMAP
1E00
7F80
6180
C3C0
C3C0
C6C0
C6C0
CCC0
CCC0
CCC0
D8C0
D8C0
F0C0
F0C0
6180
7F80
1E00
ENDCHAR
STARTCHAR char17
ENCODING 17
SWIDTH 750 0
DWIDTH 15 0
BBX 12 17 1 3
BITMAP
FFC0
FFE0
C070
C030
C030
C030
C030
C030
C030
C030
C030
C030
C030
C030
C070
FFE0
FFC0
ENDCHAR
STARTCHAR char18
ENCODING 18
SWIDTH 750 0
DWIDTH 15 0
BBX 11 15 1 4
BITMAP
0E00
0E00
3FC0
FFE0
FFE0
FFE0
0E00
0E00
0E00
0E00
FFE0
3FC0
3FC0
3FC0
0E00
ENDCHAR
STARTCHAR char19
ENCODING 19
SWIDTH 750 0
DWIDTH 15 0
BBX 11 15 1 4
BITMAP
F1E0
F1E0
F1E0
F1E0
F1E0
F1E0
F1E0
F1E0
F1E0
F1E0
0000
F1E0
F1E0
F1E0
F1E0
ENDCHAR
STARTCHAR char20
ENCODING 20
SWIDTH 750 0
DWIDTH 15 0
BBX 4 9 8 10
BITMAP
E0
E0
00
00
00
00
00
F0
F0
ENDCHAR
STARTCHAR char21
ENCODING 21
SWIDTH 750 0
DWIDTH 15 0
BBX 12 20 0 0
BITMAP
7FE0
E0F0
E0F0
7800
1F00
1F00
1F00
79E0
E0F0
E0F0
E0F0
79E0
1F00
1F00
1F00
01E0
E0F0
E0F0
7FE0
7FE0
ENDCHAR
STARTCHAR char22
ENCODING 22
SWIDTH 750 0
DWIDTH 15 0
BBX 12 5 0 4
BITMAP
FFF0
FFF0
FFF0
FFF0
FFF0
ENDCHAR
STARTCHAR char23
ENCODING 23
SWIDTH 750 0
DWIDTH 15 0
BBX 11 17 1 2
BITMAP
0E00
0E00
3FC0
FFE0
FFE0
FFE0
0E00
0E00
0E00
0E00
FFE0
3FC0
3FC0
3FC0
0E00
FFE0
FFE0
ENDCHAR
STARTCHAR char24
ENCODING 24
SWIDTH 750 0
DWIDTH 15 0
BBX 12 18 1 2
BITMAP
0600
0F00
1F80
36C0
6660
C630
8610
0600
0600
0600
0600
0600
0600
0600
0600
0600
0600
0600
ENDCHAR
STARTCHAR char25
ENCODING 25
SWIDTH 750 0
DWIDTH 15 0
BBX 12 18 1 2
BITMAP
0600
0600
0600
0600
0600
0600
0600
0600
0600
0600
0600
8610
C630
6660
36C0
1F80
0F00
0600
ENDCHAR
STARTCHAR char26
ENCODING 26
SWIDTH 750 0
DWIDTH 15 0
BBX 14 14 0 4
BITMAP
0100
0180
00C0
0060
0030
0018
FFFC
FFFC
0018
0030
0060
00C0
0180
0100
ENDCHAR
STARTCHAR char27
ENCODING 27
SWIDTH 750 0
DWIDTH 15 0
BBX 14 14 0 4
BITMAP
0200
0600
0C00
1800
3000
6000
FFFC
FFFC
6000
3000
1800
0C00
0600
0200
ENDCHAR
STARTCHAR char28
ENCODING 28
SWIDTH 750 0
DWIDTH 15 0
BBX 12 5 0 8
BITMAP
E000
E000
E000
E000
FFF0
ENDCHAR
STARTCHAR char29
ENCODING 29
SWIDTH 750 0
DWIDTH 15 0
BBX 12 8 0 8
BITMAP
1900
1900
1900
79E0
FFF0
FFF0
79E0
1900
ENDCHAR
STARTCHAR char30
ENCODING 30
SWIDTH 750 0
DWIDTH 15 0
BBX 13 13 1 5
BITMAP
0200
0700
0700
0F80
0F80
1FC0
1FC0
3FE0
3FE0
7FF0
7FF0
FFF8
FFF8
ENDCHAR
STARTCHAR char31
ENCODING 31
SWIDTH 750 0
DWIDTH 15 0
BBX 12 12 0 5
BITMAP
FFF0
FFF0
FFF0
7FE0
7FE0
3FC0
3FC0
1F80
1F80
0F00
0F00
0600
ENDCHAR
STARTCHAR char32
ENCODING 32
SWIDTH 750 0
DWIDTH 15 0
BBX 0 0 0 0
BITMAP
ENDCHAR
STARTCHAR char33
ENCODING 33
SWIDTH 750 0
DWIDTH 15 0
BBX 7 15 3 4
BITMAP
38
38
7C
FE
FE
FE
FE
7C
38
38
38
00
38
38
38
ENDCHAR
STARTCHAR char34
ENCODING 34
SWIDTH 750 0
DWIDTH 15 0
BBX 11 7 1 13
BITMAP
F1E0
F1E0
3180
3180
3180
3180
3180
ENDCHAR
STARTCHAR char35
ENCODING 35
SWIDTH 750 0
DWIDTH 15 0
BBX 12 15 0 4
BITMAP
70E0
70E0
70E0
FFF0
FFF0
FFF0
70E0
70E0
70E0
FFF0
FFF0
FFF0
70E0
70E0
70E0
ENDCHAR
STARTCHAR char36
ENCODING 36
SWIDTH 750 0
DWIDTH 15 0
BBX 12 21 0 0
BITMAP
0700
0700
3FC0
7FE0
F0F0
E030
E000
E000
FF80
7FC0
3FE0
00F0
0070
C070
F070
FFF0
7FE0
1F80
0700
0700
0700
ENDCHAR
STARTCHAR char37
ENCODING 37
SWIDTH 750 0
DWIDTH 15 0
BBX 12 12 0 4
BITMAP
F030
F070
F0F0
F1E0
03C0
0780
0F00
1E00
3CF0
78F0
F0F0
E0F0
ENDCHAR
STARTCHAR char38
ENCODING 38
SWIDTH 750 0
DWIDTH 15 0
BBX 12 15 0 4
BITMAP
1F00
1F00
79C0
79C0
79C0
79C0
1F00
7EF0
7EF0
E3E0
E1C0
E1C0
E1C0
FFE0
7EF0
ENDCHAR
STARTCHAR char39
ENCODING 39
SWIDTH 750 0
DWIDTH 15 0
BBX 6 7 1 13
BITMAP
3C
3C
3C
7C
F8
F0
F0
ENDCHAR
STARTCHAR char40
ENCODING 40
SWIDTH 750 0
DWIDTH 15 0
BBX 8 15 3 4
BITMAP
0F
3F
38
78
F0
E0
E0
E0
E0
E0
F0
78
38
3F
0F
ENDCHAR
STARTCHAR char41
ENCODING 41
SWIDTH 750 0
DWIDTH 15 0
BBX 8 15 3 4
BITMAP
F0
FC
1C
1E
0F
07
07
07
07
07
0F
1E
1C
FC
F0
ENDCHAR
STARTCHAR char42
ENCODING 42
SWIDTH 750 0
DWIDTH 15 0
BBX 15 15 0 4
BITMAP
E7CE
9452
4C64
2448
1010
F83E
8002
8002
8002
F83E
1010
2448
4C64
9452
E7CE
ENDCHAR
STARTCHAR char43
ENCODING 43
SWIDTH 750 0
DWIDTH 15 0
BBX 15 15 0 4
BITMAP
07C0
0440
0440
0440
0440
FC7E
8002
8002
8002
FC7E
0440
0440
0440
0440
07C0
ENDCHAR
STARTCHAR char44
ENCODING 44
SWIDTH 750 0
DWIDTH 15 0
BBX 5 7 3 2
BITMAP
38
38
38
38
38
F0
F0
ENDCHAR
STARTCHAR char45
ENCODING 45
SWIDTH 750 0
DWIDTH 15 0
BBX 12 2 1 10
BITMAP
FFF0
FFF0
ENDCHAR
STARTCHAR char46
ENCODING 46
SWIDTH 750 0
DWIDTH 15 0
BBX 3 4 5 5
BITMAP
E0
E0
E0
E0
ENDCHAR
STARTCHAR char47
ENCODING 47
SWIDTH 750 0
DWIDTH 15 0
BBX 11 17 1 2
BITMAP
0060
00C0
00C0
0180
0180
0300
0700
0600
0C00
1C00
1800
3000
3000
6000
6000
C000
C000
ENDCHAR
STARTCHAR char48
ENCODING 48
SWIDTH 750 0
DWIDTH 15 0
BBX 12 19 1 2
BITMAP
1F80
2040
4020
9F90
9110
9110
9290
9290
9590
9590
9A90
9A90
9490
9490
8890
8F90
4020
2040
1F80
ENDCHAR
STARTCHAR char49
ENCODING 49
SWIDTH 750 0
DWIDTH 15 0
BBX 12 19 1 2
BITMAP
0700
0900
3100
4100
8100
9900
E900
0900
0900
0900
0900
0900
0900
0900
0900
F9F0
8010
8010
FFF0
ENDCHAR
STARTCHAR char50
ENCODING 50
SWIDTH 750 0
DWIDTH 15 0
BBX 12 19 1 2
BITMAP
0F80
1040
2020
4710
8890
9090
6090
0090
0110
0220
0440
0880
1100
2200
4400
8FF0
8010
8010
FFF0
ENDCHAR
STARTCHAR char51
ENCODING 51
SWIDTH 750 0
DWIDTH 15 0
BBX 12 19 1 2
BITMAP
1F80
2040
4020
8F10
9090
6090
0090
0710
0820
0820
0710
0090
6090
9090
9090
8F10
4020
2040
1F80
ENDCHAR
STARTCHAR char52
ENCODING 52
SWIDTH 750 0
DWIDTH 15 0
BBX 12 19 1 2
BITMAP
03E0
0420
0820
1020
1320
2520
2520
4920
8920
9F30
8010
8010
FF30
0120
0120
0120
0120
0120
01E0
ENDCHAR
STARTCHAR char53
ENCODING 53
SWIDTH 750 0
DWIDTH 15 0
BBX 12 19 1 2
BITMAP
FFF0
8010
8010
9FF0
9000
9000
9F80
8040
8020
FF10
0090
0090
6090
9090
9090
8F10
4020
2040
1F80
ENDCHAR
STARTCHAR char54
ENCODING 54
SWIDTH 750 0
DWIDTH 15 0
BBX 14 19 0 2
BITMAP
1FE0
2010
4008
8FC4
9024
9018
9000
9FE0
9010
8008
8FC4
9024
9024
9024
9024
8FC4
4008
2010
1FE0
ENDCHAR
STARTCHAR char55
ENCODING 55
SWIDTH 750 0
DWIDTH 15 0
BBX 12 19 1 2
BITMAP
FFF0
8010
8010
9F90
F090
0090
0110
0220
0440
0480
0900
0900
0900
1200
1200
1200
1200
1200
1E00
ENDCHAR
STARTCHAR char56
ENCODING 56
SWIDTH 750 0
DWIDTH 15 0
BBX 14 19 0 2
BITMAP
1FE0
2010
4008
8FC4
9024
9024
9024
4FC8
4008
2010
4FC8
9024
9024
9024
9024
8FC4
4008
2010
1FE0
ENDCHAR
STARTCHAR char57
ENCODING 57
SWIDTH 750 0
DWIDTH 15 0
BBX 14 19 0 2
BITMAP
1FE0
2010
4008
8FC4
9024
9024
9024
9024
9024
8FC4
4004
2024
1FE4
6024
9024
8FC4
4008
2010
1FE0
ENDCHAR
STARTCHAR char58
ENCODING 58
SWIDTH 750 0
DWIDTH 15 0
BBX 3 10 2 4
BITMAP
E0
E0
E0
00
00
00
00
E0
E0
E0
ENDCHAR
STARTCHAR char59
ENCODING 59
SWIDTH 750 0
DWIDTH 15 0
BBX 5 13 3 4
BITMAP
38
38
38
38
00
00
00
00
38
38
38
38
F0
ENDCHAR
STARTCHAR char60
ENCODING 60
SWIDTH 750 0
DWIDTH 15 0
BBX 11 17 1 2
BITMAP
00E0
01C0
0380
0700
0E00
1C00
3800
7000
E000
7000
3800
1C00
0E00
0700
0380
01C0
00E0
ENDCHAR
STARTCHAR char61
ENCODING 61
SWIDTH 750 0
DWIDTH 15 0
BBX 11 5 1 8
BITMAP
FFE0
0000
0000
0000
FFE0
ENDCHAR
STARTCHAR char62
ENCODING 62
SWIDTH 750 0
DWIDTH 15 0
BBX 11 17 2 2
BITMAP
E000
7000
3800
1C00
0E00
0700
0380
01C0
00E0
01C0
0380
0700
0E00
1C00
3800
7000
E000
ENDCHAR
STARTCHAR char63
ENCODING 63
SWIDTH 750 0
DWIDTH 15 0
BBX 11 15 1 4
BITMAP
3F80
7FC0
E0E0
C060
C060
C1E0
03C0
0F00
0E00
0E00
0000
0E00
0E00
0E00
0E00
ENDCHAR
STARTCHAR char64
ENCODING 64
SWIDTH 750 0
DWIDTH 15 0
BBX 0 0 0 0
BITMAP
ENDCHAR
STARTCHAR char65
ENCODING 65
SWIDTH 750 0
DWIDTH 15 0
BBX 14 19 0 2
BITMAP
0300
0480
0480
0480
0840
0840
1120
1120
1320
2290
2790
2010
4008
4FC8
4848
9024
9024
9024
6018
ENDCHAR
STARTCHAR char66
ENCODING 66
SWIDTH 750 0
DWIDTH 15 0
BBX 14 19 0 2
BITMAP
FFE0
8010
8008
9FE4
9024
9024
9024
9FE4
8008
8010
9FC8
9024
9024
9024
9024
9FE4
8008
8010
FFE0
ENDCHAR
STARTCHAR char67
ENCODING 67
SWIDTH 750 0
DWIDTH 15 0
BBX 14 19 0 2
BITMAP
1FE0
2010
4008
8FC4
9024
9018
9000
9000
9000
9000
9000
9000
9018
9024
9024
8FC4
4008
2010
1FE0
ENDCHAR
STARTCHAR char68
ENCODING 68
SWIDTH 750 0
DWIDTH 15 0
BBX 14 19 0 2
BITMAP
FFC0
8020
8010
9F88
9048
9044
9024
9024
9024
9024
9024
9024
9024
9044
9048
9F88
8010
8060
FF80
ENDCHAR
STARTCHAR char69
ENCODING 69
SWIDTH 750 0
DWIDTH 15 0
BBX 14 19 0 2
BITMAP
FFFC
8004
8004
9FFC
9000
9000
9000
9FF0
8010
8010
9FF0
9000
9000
9000
9000
9FFC
8004
8004
FFFC
ENDCHAR
STARTCHAR char70
ENCODING 70
SWIDTH 750 0
DWIDTH 15 0
BBX 14 19 0 2
BITMAP
FFFC
8004
8004
9FFC
9000
9000
9000
9FF0
8010
8010
9FF0
9000
9000
9000
9000
9000
9000
9000
F000
ENDCHAR
STARTCHAR char71
ENCODING 71
SWIDTH 750 0
DWIDTH 15 0
BBX 14 19 0 2
BITMAP
1FE0
2010
4008
8FC4
9824
9018
9000
9000
91F8
9204
9204
91E4
9024
9024
9024
8FC4
4008
2010
1FE0
ENDCHAR
STARTCHAR char72
ENCODING 72
SWIDTH 750 0
DWIDTH 15 0
BBX 14 19 0 2
BITMAP
F03C
9024
9024
9024
9024
9024
9024
9024
9FE4
8004
8004
9FE4
9024
9024
9024
9024
9024
9024
F03C
ENDCHAR
STARTCHAR char73
ENCODING 73
SWIDTH 750 0
DWIDTH 15 0
BBX 12 19 1 2
BITMAP
FFF0
8010
8010
F9F0
0900
0900
0900
0900
0900
0900
0900
0900
0900
0900
0900
F9F0
8010
8010
FFF0
ENDCHAR
STARTCHAR char74
ENCODING 74
SWIDTH 750 0
DWIDTH 15 0
BBX 14 19 0 2
BITMAP
3FFC
2004
2004
3F9C
0090
0090
0090
0090
0090
0090
0090
0090
6090
9090
9090
8F10
4020
2040
1F80
ENDCHAR
STARTCHAR char75
ENCODING 75
SWIDTH 750 0
DWIDTH 15 0
BBX 14 19 0 2
BITMAP
F01C
9024
9044
9088
9110
9220
9440
9880
8100
8200
8100
9880
9440
9220
9110
9088
9044
9024
F01C
ENDCHAR
STARTCHAR char76
ENCODING 76
SWIDTH 750 0
DWIDTH 15 0
BBX 13 19 0 2
BITMAP
F000
9000
9000
9000
9000
9000
9000
9000
9000
9000
9000
9000
9000
9000
9000
9FF8
8008
8008
FFF8
ENDCHAR
STARTCHAR char77
ENCODING 77
SWIDTH 750 0
DWIDTH 15 0
BBX 14 19 0 2
BITMAP
E01C
9024
8844
8484
8304
9024
9864
94A4
9324
9024
9024
9024
9024
9024
9024
9024
9024
9024
F03C
ENDCHAR
STARTCHAR char78
ENCODING 78
SWIDTH 750 0
DWIDTH 15 0
BBX 14 19 0 2
BITMAP
F03C
9024
9024
8824
8424
8424
9224
9224
9924
98A4
94A4
9264
9224
9104
9084
9044
9024
9024
F03C
ENDCHAR
STARTCHAR char79
ENCODING 79
SWIDTH 750 0
DWIDTH 15 0
BBX 14 19 0 2
BITMAP
1FE0
2010
4008
8FC4
9024
9024
9024
9024
9024
9024
9024
9024
9024
9024
9024
8FC4
4008
2010
1FE0
ENDCHAR
STARTCHAR char80
ENCODING 80
SWIDTH 750 0
DWIDTH 15 0
BBX 14 19 0 2
BITMAP
FFE0
8010
8008
9FC4
9024
9024
9024
9024
9024
9FC8
8008
8030
9FC0
9000
9000
9000
9000
9000
F000
ENDCHAR
STARTCHAR char81
ENCODING 81
SWIDTH 750 0
DWIDTH 15 0
BBX 14 19 0 2
BITMAP
1FE0
2010
4008
8FC4
9024
9024
9024
9024
9024
9324
94A4
94A4
9464
9224
9104
8F88
4004
2024
1FD8
ENDCHAR
STARTCHAR char82
ENCODING 82
SWIDTH 750 0
DWIDTH 15 0
BBX 14 19 0 2
BITMAP
FFE0
8010
8008
9FC4
9024
9024
9024
9024
9024
9FC8
8008
8010
9F90
9090
9048
9048
9024
9024
F01C
ENDCHAR
STARTCHAR char83
ENCODING 83
SWIDTH 750 0
DWIDTH 15 0
BBX 14 19 0 2
BITMAP
1FE0
2010
4008
8FC4
9024
9018
9800
8700
40C0
2070
1C08
03C4
6024
9024
9024
8FC4
4008
2010
1FE0
ENDCHAR
STARTCHAR char84
ENCODING 84
SWIDTH 750 0
DWIDTH 15 0
BBX 14 19 0 2
BITMAP
FFFC
8004
8004
FCFC
0480
0480
0480
0480
0480
0480
0480
0480
0480
0480
0480
0480
0480
0480
0780
ENDCHAR
STARTCHAR char85
ENCODING 85
SWIDTH 750 0
DWIDTH 15 0
BBX 14 19 0 2
BITMAP
F03C
9024
9024
9024
9024
9024
9024
9024
9024
9024
9024
9024
9024
9024
9024
4FC8
4008
2010
1FE0
ENDCHAR
STARTCHAR char86
ENCODING 86
SWIDTH 750 0
DWIDTH 15 0
BBX 14 19 0 2
BITMAP
F03C
9024
9024
9024
9024
8848
C848
4848
4848
4848
6490
2490
2490
1320
1020
1020
1CE0
0480
0780
ENDCHAR
STARTCHAR char87
ENCODING 87
SWIDTH 750 0
DWIDTH 15 0
BBX 14 19 0 2
BITMAP
F03C
9024
9024
9024
9024
9024
9024
9024
9024
9024
9324
94A4
9864
8004
8004
8784
8844
9024
E01C
ENDCHAR
STARTCHAR char88
ENCODING 88
SWIDTH 750 0
DWIDTH 15 0
BBX 14 19 0 2
BITMAP
6018
9024
9024
4848
4848
2490
2490
1320
1020
0CC0
1020
1320
2490
2490
4848
4848
9024
9024
6018
ENDCHAR
STARTCHAR char89
ENCODING 89
SWIDTH 750 0
DWIDTH 15 0
BBX 14 19 0 2
BITMAP
6018
9024
9024
4848
4848
2490
2490
1320
1020
0840
0480
0480
0480
0480
0480
0480
0480
0480
0780
ENDCHAR
STARTCHAR char90
ENCODING 90
SWIDTH 750 0
DWIDTH 15 0
BBX 14 19 0 2
BITMAP
FFFC
8004
8004
FFE4
0024
0048
0090
0120
0240
0480
0900
1200
2400
4800
9000
9FFC
8004
8004
FFFC
ENDCHAR
STARTCHAR char91
ENCODING 91
SWIDTH 750 0
DWIDTH 15 0
BBX 8 17 3 3
BITMAP
FF
FF
C0
C0
C0
C0
C0
C0
C0
C0
C0
C0
C0
C0
C0
FF
FF
ENDCHAR
STARTCHAR char92
ENCODING 92
SWIDTH 750 0
DWIDTH 15 0
BBX 11 18 1 2
BITMAP
C000
C000
6000
6000
3000
3000
1800
1C00
0C00
0600
0700
0300
0180
0180
00C0
00C0
0060
0060
ENDCHAR
STARTCHAR char93
ENCODING 93
SWIDTH 750 0
DWIDTH 15 0
BBX 8 17 3 3
BITMAP
FF
FF
03
03
03
03
03
03
03
03
03
03
03
03
03
FF
FF
ENDCHAR
STARTCHAR char94
ENCODING 94
SWIDTH 750 0
DWIDTH 15 0
BBX 12 5 0 16
BITMAP
0600
1F80
39C0
70E0
E070
ENDCHAR
STARTCHAR char95
ENCODING 95
SWIDTH 750 0
DWIDTH 15 0
BBX 14 2 0 2
BITMAP
FFFC
FFFC
ENDCHAR
STARTCHAR char96
ENCODING 96
SWIDTH 750 0
DWIDTH 15 0
BBX 4 4 3 17
BITMAP
F0
F0
30
30
ENDCHAR
STARTCHAR char97
ENCODING 97
SWIDTH 750 0
DWIDTH 15 0
BBX 12 9 0 4
BITMAP
7F00
01E0
01E0
7FE0
E1E0
E1E0
E1E0
E1E0
7EF0
ENDCHAR
STARTCHAR char98
ENCODING 98
SWIDTH 750 0
DWIDTH 15 0
BBX 12 15 0 4
BITMAP
F800
F800
7800
7800
7800
7800
7F00
79E0
79E0
78F0
78F0
78F0
78F0
78F0
7FE0
ENDCHAR
STARTCHAR char99
ENCODING 99
SWIDTH 750 0
DWIDTH 15 0
BBX 12 9 0 4
BITMAP
7FE0
E0F0
E0F0
E000
E000
E0F0
E0F0
E0F0
7FE0
ENDCHAR
STARTCHAR char100
ENCODING 100
SWIDTH 750 0
DWIDTH 15 0
BBX 12 15 0 4
BITMAP
07E0
07E0
01E0
01E0
01E0
01E0
1FE0
79E0
79E0
E1E0
E1E0
E1E0
E1E0
E1E0
7EF0
ENDCHAR
STARTCHAR char101
ENCODING 101
SWIDTH 750 0
DWIDTH 15 0
BBX 12 9 0 4
BITMAP
7FE0
E0F0
E0F0
FFF0
E000
E0F0
E0F0
E0F0
7FE0
ENDCHAR
STARTCHAR char102
ENCODING 102
SWIDTH 750 0
DWIDTH 15 0
BBX 11 15 0 4
BITMAP
1F00
1F00
79E0
78E0
78E0
78E0
7800
FE00
FE00
7800
7800
7800
7800
7800
FE00
ENDCHAR
STARTCHAR char103
ENCODING 103
SWIDTH 750 0
DWIDTH 15 0
BBX 12 13 0 0
BITMAP
7EF0
E1E0
E1E0
E1E0
E1E0
7FE0
7FE0
7FE0
01E0
E1E0
E1E0
7F00
7F00
ENDCHAR
STARTCHAR char104
ENCODING 104
SWIDTH 750 0
DWIDTH 15 0
BBX 12 15 0 4
BITMAP
F800
F800
7800
7800
7800
7800
79E0
7EF0
7EF0
78F0
78F0
78F0
78F0
78F0
F8F0
ENDCHAR
STARTCHAR char105
ENCODING 105
SWIDTH 750 0
DWIDTH 15 0
BBX 8 15 3 4
BITMAP
38
38
38
00
00
00
F8
38
38
38
38
38
38
38
FF
ENDCHAR
STARTCHAR char106
ENCODING 106
SWIDTH 750 0
DWIDTH 15 0
BBX 11 19 1 0
BITMAP
01E0
01E0
01E0
0000
0000
0000
03E0
01E0
01E0
01E0
01E0
01E0
01E0
01E0
F1E0
F1E0
F1E0
3FC0
3FC0
ENDCHAR
STARTCHAR char107
ENCODING 107
SWIDTH 750 0
DWIDTH 15 0
BBX 12 15 0 4
BITMAP
F800
F800
7800
7800
7800
7800
78F0
79E0
79E0
7F00
79E0
78F0
78F0
78F0
F8F0
ENDCHAR
STARTCHAR char108
ENCODING 108
SWIDTH 750 0
DWIDTH 15 0
BBX 8 15 3 4
BITMAP
F8
F8
38
38
38
38
38
38
38
38
38
38
38
38
FF
ENDCHAR
STARTCHAR char109
ENCODING 109
SWIDTH 750 0
DWIDTH 15 0
BBX 12 9 0 4
BITMAP
F9E0
FFF0
FFF0
E6F0
E6F0
E6F0
E6F0
E6F0
E0F0
ENDCHAR
STARTCHAR char110
ENCODING 110
SWIDTH 750 0
DWIDTH 15 0
BBX 12 9 0 4
BITMAP
E7E0
78F0
78F0
78F0
78F0
78F0
78F0
78F0
78F0
ENDCHAR
STARTCHAR char111
ENCODING 111
SWIDTH 750 0
DWIDTH 15 0
BBX 12 9 0 4
BITMAP
7FE0
E0F0
E0F0
E0F0
E0F0
E0F0
E0F0
E0F0
7FE0
ENDCHAR
STARTCHAR char112
ENCODING 112
SWIDTH 750 0
DWIDTH 15 0
BBX 12 13 0 0
BITMAP
E7E0
78F0
78F0
78F0
78F0
7FE0
7FE0
7FE0
7800
7800
7800
FE00
FE00
ENDCHAR
STARTCHAR char113
ENCODING 113
SWIDTH 750 0
DWIDTH 15 0
BBX 12 13 0 0
BITMAP
7EF0
E1E0
E1E0
E1E0
E1E0
7FE0
7FE0
7FE0
01E0
01E0
01E0
07F0
07F0
ENDCHAR
STARTCHAR char114
ENCODING 114
SWIDTH 750 0
DWIDTH 15 0
BBX 12 9 0 4
BITMAP
E7E0
7EF0
7EF0
78F0
7800
7800
7800
7800
FE00
ENDCHAR
STARTCHAR char115
ENCODING 115
SWIDTH 750 0
DWIDTH 15 0
BBX 12 9 0 4
BITMAP
7FE0
E0F0
E0F0
7E00
07E0
E0F0
E0F0
E0F0
7FE0
ENDCHAR
STARTCHAR char116
ENCODING 116
SWIDTH 750 0
DWIDTH 15 0
BBX 12 15 0 4
BITMAP
0600
0600
1E00
1E00
1E00
1E00
FFE0
1E00
1E00
1E00
1E00
1EF0
1EF0
1EF0
07E0
ENDCHAR
STARTCHAR char117
ENCODING 117
SWIDTH 750 0
DWIDTH 15 0
BBX 12 9 0 4
BITMAP
E1E0
E1E0
E1E0
E1E0
E1E0
E1E0
E1E0
E1E0
7EF0
ENDCHAR
STARTCHAR char118
ENCODING 118
SWIDTH 750 0
DWIDTH 15 0
BBX 11 9 1 4
BITMAP
F1E0
F1E0
F1E0
F1E0
F1E0
3FC0
3FC0
3FC0
0E00
ENDCHAR
STARTCHAR char119
ENCODING 119
SWIDTH 750 0
DWIDTH 15 0
BBX 12 9 0 4
BITMAP
E0F0
E0F0
E0F0
E6F0
E6F0
FFF0
FFF0
FFF0
79E0
ENDCHAR
STARTCHAR char120
ENCODING 120
SWIDTH 750 0
DWIDTH 15 0
BBX 12 9 0 4
BITMAP
E0F0
79E0
79E0
1F00
1F00
79E0
79E0
79E0
E0F0
ENDCHAR
STARTCHAR char121
ENCODING 121
SWIDTH 750 0
DWIDTH 15 0
BBX 12 13 0 0
BITMAP
E0F0
E0F0
E0F0
E0F0
E0F0
7FF0
7FF0
7FF0
00F0
01E0
01E0
FF00
FF00
ENDCHAR
STARTCHAR char122
ENCODING 122
SWIDTH 750 0
DWIDTH 15 0
BBX 12 9 0 4
BITMAP
FFF0
E1E0
E1E0
0700
1E00
78F0
78F0
78F0
FFF0
ENDCHAR
STARTCHAR char123
ENCODING 123
SWIDTH 750 0
DWIDTH 15 0
BBX 10 17 2 3
BITMAP
07C0
0FC0
0C00
1C00
1C00
1C00
1800
F800
F800
F800
1800
1C00
1C00
1C00
0C00
0FC0
07C0
ENDCHAR
STARTCHAR char124
ENCODING 124
SWIDTH 750 0
DWIDTH 15 0
BBX 2 17 6 3
BITMAP
C0
C0
C0
C0
C0
C0
C0
C0
00
C0
C0
C0
C0
C0
C0
C0
C0
ENDCHAR
STARTCHAR char125
ENCODING 125
SWIDTH 750 0
DWIDTH 15 0
BBX 10 17 2 3
BITMAP
F800
FC00
0C00
0E00
0E00
0E00
0600
07C0
07C0
07C0
0600
0E00
0E00
0E00
0C00
FC00
F800
ENDCHAR
STARTCHAR char126
ENCODING 126
SWIDTH 750 0
DWIDTH 15 0
BBX 13 4 0 15
BITMAP
3C38
7E70
E7E0
C3C0
ENDCHAR
STARTCHAR char127
ENCODING 127
SWIDTH 750 0
DWIDTH 15 0
BBX 14 11 0 5
BITMAP
0780
0780
1FE0
1CE0
7878
7878
E01C
C00C
C00C
FFFC
FFFC
ENDCHAR
STARTCHAR char128
ENCODING 128
SWIDTH 750 0
DWIDTH 15 0
BBX 15 15 0 4
BITMAP
0100
0280
0440
0440
0920
0920
1290
1290
2448
2448
4824
4FE4
8002
8002
FFFE
ENDCHAR
STARTCHAR char129
ENCODING 129
SWIDTH 750 0
DWIDTH 15 0
BBX 15 15 0 4
BITMAP
FFFE
8002
8002
9FF2
9012
9012
9012
9012
9012
9012
9012
9FF2
8002
8002
FFFE
ENDCHAR
STARTCHAR char130
ENCODING 130
SWIDTH 750 0
DWIDTH 15 0
BBX 13 13 1 5
BITMAP
FFF8
FFF8
C018
C018
FFF8
FFF8
C018
C018
C018
C018
C018
FFF8
FFF8
ENDCHAR
STARTCHAR char131
ENCODING 131
SWIDTH 750 0
DWIDTH 15 0
BBX 13 13 1 4
BITMAP
FFF8
FFF8
6030
6030
3FE0
3FE0
18C0
18C0
0D80
0F80
0700
0700
0200
ENDCHAR
STARTCHAR char132
ENCODING 132
SWIDTH 750 0
DWIDTH 15 0
BBX 13 13 1 5
BITMAP
0700
0F80
1DC0
38E0
7070
E038
C018
E038
7070
38E0
1DC0
0F80
0700
ENDCHAR
STARTCHAR char133
ENCODING 133
SWIDTH 750 0
DWIDTH 15 0
BBX 13 9 1 7
BITMAP
1FC0
3FE0
7070
E038
C018
E038
7070
3FE0
1FC0
ENDCHAR
STARTCHAR char134
ENCODING 134
SWIDTH 750 0
DWIDTH 15 0
BBX 13 13 1 5
BITMAP
0200
0700
0700
0D80
0D80
18C0
18C0
3060
3060
6030
6030
C018
C018
ENDCHAR
STARTCHAR char135
ENCODING 135
SWIDTH 750 0
DWIDTH 15 0
BBX 13 13 1 5
BITMAP
FFF8
FFF8
C078
C0D8
C198
C318
C618
CC18
D818
F018
E018
FFF8
FFF8
ENDCHAR
STARTCHAR char136
ENCODING 136
SWIDTH 750 0
DWIDTH 15 0
BBX 13 13 1 4
BITMAP
FFF8
FFF8
6030
6030
3060
3060
18C0
18C0
0D80
0F80
0700
0700
0200
ENDCHAR
STARTCHAR char137
ENCODING 137
SWIDTH 750 0
DWIDTH 15 0
BBX 12 17 1 2
BITMAP
FFF0
FFF0
0030
0030
0030
0030
0030
3FF0
3FF0
0030
0030
0030
0030
0030
0030
FFF0
FFF0
ENDCHAR
STARTCHAR char138
ENCODING 138
SWIDTH 700 0
DWIDTH 14 0
BBX 13 13 1 5
BITMAP
C018
6030
3060
18C0
0D80
0700
0200
0700
0D80
18C0
3060
6030
C018
ENDCHAR
STARTCHAR char139
ENCODING 139
SWIDTH 700 0
DWIDTH 14 0
BBX 14 14 0 5
BITMAP
0FC0
3030
4008
4008
8004
8004
8004
8004
8004
8004
4008
4008
3030
0FC0
ENDCHAR
STARTCHAR char140
ENCODING 140
SWIDTH 750 0
DWIDTH 15 0
BBX 15 15 0 4
BITMAP
0100
0280
0440
0820
1010
2008
4004
8002
4004
2008
1010
0820
0440
0280
0100
ENDCHAR
STARTCHAR char141
ENCODING 141
SWIDTH 700 0
DWIDTH 14 0
BBX 13 13 1 5
BITMAP
FFF8
FFF8
FFF8
FFF8
FFF8
FFF8
FFF8
FFF8
FFF8
FFF8
FFF8
FFF8
FFF8
ENDCHAR
STARTCHAR char142
ENCODING 142
SWIDTH 750 0
DWIDTH 15 0
BBX 12 16 0 4
BITMAP
E0F0
E0F0
E0F0
0600
1F00
1F00
1F00
79E0
E0F0
E0F0
E0F0
FFF0
E0F0
E0F0
E0F0
E0F0
ENDCHAR
STARTCHAR char143
ENCODING 143
SWIDTH 750 0
DWIDTH 15 0
BBX 12 17 0 4
BITMAP
1F00
79E0
1F00
1F00
0000
1F00
1F00
1F00
79E0
E0F0
E0F0
E0F0
FFF0
E0F0
E0F0
E0F0
E0F0
ENDCHAR
STARTCHAR char144
ENCODING 144
SWIDTH 750 0
DWIDTH 15 0
BBX 12 17 0 4
BITMAP
0700
1E00
7800
7800
0000
FFF0
FFF0
FFF0
78F0
7800
7800
7FE0
7800
78F0
78F0
78F0
FFF0
ENDCHAR
STARTCHAR char145
ENCODING 145
SWIDTH 750 0
DWIDTH 15 0
BBX 12 12 0 4
BITMAP
E1E0
E1E0
E1E0
7EF0
1EF0
1EF0
7FF0
E700
E700
E700
E700
79F0
ENDCHAR
STARTCHAR char146
ENCODING 146
SWIDTH 750 0
DWIDTH 15 0
BBX 12 15 0 4
BITMAP
1FF0
1FF0
79E0
E1E0
E1E0
E1E0
E1E0
FFF0
FFF0
E1E0
E1E0
E1E0
E1E0
E1E0
E1F0
ENDCHAR
STARTCHAR char147
ENCODING 147
SWIDTH 750 0
DWIDTH 15 0
BBX 12 16 0 4
BITMAP
0600
1F00
1F00
79E0
0000
0000
0000
7FE0
E0F0
E0F0
E0F0
E0F0
E0F0
E0F0
E0F0
7FE0
ENDCHAR
STARTCHAR char148
ENCODING 148
SWIDTH 750 0
DWIDTH 15 0
BBX 12 15 0 4
BITMAP
E0F0
E0F0
E0F0
0000
0000
0000
7FE0
E0F0
E0F0
E0F0
E0F0
E0F0
E0F0
E0F0
7FE0
ENDCHAR
STARTCHAR char149
ENCODING 149
SWIDTH 750 0
DWIDTH 15 0
BBX 12 16 0 4
BITMAP
7800
1E00
1E00
0700
0000
0000
0000
7FE0
E0F0
E0F0
E0F0
E0F0
E0F0
E0F0
E0F0
7FE0
ENDCHAR
STARTCHAR char150
ENCODING 150
SWIDTH 750 0
DWIDTH 15 0
BBX 12 16 0 4
BITMAP
1E00
7F00
7F00
E1E0
0000
0000
0000
E1E0
E1E0
E1E0
E1E0
E1E0
E1E0
E1E0
E1E0
7EF0
ENDCHAR
STARTCHAR char151
ENCODING 151
SWIDTH 750 0
DWIDTH 15 0
BBX 12 16 0 4
BITMAP
7800
1E00
1E00
0700
0000
0000
0000
E1E0
E1E0
E1E0
E1E0
E1E0
E1E0
E1E0
E1E0
7EF0
ENDCHAR
STARTCHAR char152
ENCODING 152
SWIDTH 750 0
DWIDTH 15 0
BBX 12 19 0 0
BITMAP
E0F0
E0F0
E0F0
0000
0000
0000
E0F0
E0F0
E0F0
E0F0
E0F0
7FF0
7FF0
7FF0
00F0
01E0
01E0
7F00
7F00
ENDCHAR
STARTCHAR char153
ENCODING 153
SWIDTH 750 0
DWIDTH 15 0
BBX 12 16 0 4
BITMAP
E0F0
E0F0
E0F0
1F00
79E0
79E0
79E0
E0F0
E0F0
E0F0
E0F0
E0F0
79E0
79E0
79E0
1F00
ENDCHAR
STARTCHAR char154
ENCODING 154
SWIDTH 750 0
DWIDTH 15 0
BBX 12 16 0 4
BITMAP
E0F0
E0F0
E0F0
0000
E0F0
E0F0
E0F0
E0F0
E0F0
E0F0
E0F0
E0F0
E0F0
E0F0
E0F0
7FE0
ENDCHAR
STARTCHAR char155
ENCODING 155
SWIDTH 750 0
DWIDTH 15 0
BBX 11 16 1 4
BITMAP
0E00
0E00
0E00
3FC0
F1E0
F1E0
F1E0
F000
F000
F000
F1E0
3FC0
0E00
0E00
0E00
0E00
ENDCHAR
STARTCHAR char156
ENCODING 156
SWIDTH 750 0
DWIDTH 15 0
BBX 12 16 0 4
BITMAP
1F00
79E0
79E0
78E0
7800
7800
7800
FE00
7800
7800
7800
7800
F8F0
F8F0
F8F0
FFE0
ENDCHAR
STARTCHAR char157
ENCODING 157
SWIDTH 750 0
DWIDTH 15 0
BBX 11 15 1 4
BITMAP
F1E0
F1E0
F1E0
3FC0
3FC0
3FC0
0E00
FFE0
FFE0
0E00
FFE0
0E00
0E00
0E00
0E00
ENDCHAR
STARTCHAR char158
ENCODING 158
SWIDTH 750 0
DWIDTH 15 0
BBX 12 16 0 4
BITMAP
FF00
E1E0
E1E0
E1E0
FF00
FF00
FF00
E0E0
E1E0
E1E0
E7F0
E1E0
E1E0
E1E0
E1E0
E0F0
ENDCHAR
STARTCHAR char159
ENCODING 159
SWIDTH 750 0
DWIDTH 15 0
BBX 12 20 0 0
BITMAP
01F0
0000
0000
0700
0700
0700
0700
0700
7FF0
7FF0
0700
0700
0700
0700
0700
0700
E700
E700
7E00
7E00
ENDCHAR
STARTCHAR char160
ENCODING 160
SWIDTH 750 0
DWIDTH 15 0
BBX 12 16 0 4
BITMAP
0700
1E00
1E00
7800
0000
0000
0000
7F00
01E0
01E0
7FE0
E1E0
E1E0
E1E0
E1E0
7EF0
ENDCHAR
STARTCHAR char161
ENCODING 161
SWIDTH 750 0
DWIDTH 15 0
BBX 8 16 3 4
BITMAP
0F
38
38
F0
00
00
00
F8
38
38
38
38
38
38
38
FF
ENDCHAR
STARTCHAR char162
ENCODING 162
SWIDTH 750 0
DWIDTH 15 0
BBX 12 16 0 4
BITMAP
0700
1E00
1E00
7800
0000
0000
0000
7FE0
E0F0
E0F0
E0F0
E0F0
E0F0
E0F0
E0F0
7FE0
ENDCHAR
STARTCHAR char163
ENCODING 163
SWIDTH 750 0
DWIDTH 15 0
BBX 12 16 0 4
BITMAP
0700
1E00
1E00
7800
0000
0000
0000
E1E0
E1E0
E1E0
E1E0
E1E0
E1E0
E1E0
E1E0
7EF0
ENDCHAR
STARTCHAR char164
ENCODING 164
SWIDTH 750 0
DWIDTH 15 0
BBX 12 15 0 4
BITMAP
7EF0
7EF0
E7E0
0000
0000
0000
E7E0
78F0
78F0
78F0
78F0
78F0
78F0
78F0
78F0
ENDCHAR
STARTCHAR char165
ENCODING 165
SWIDTH 750 0
DWIDTH 15 0
BBX 12 17 0 4
BITMAP
7EF0
E7E0
0000
0000
E0F0
F8F0
F8F0
F8F0
FEF0
FFF0
FFF0
E7F0
E1F0
E0F0
E0F0
E0F0
E0F0
ENDCHAR
STARTCHAR char166
ENCODING 166
SWIDTH 750 0
DWIDTH 15 0
BBX 11 10 1 10
BITMAP
3FC0
F3C0
F3C0
F3C0
3FE0
3FE0
3FE0
0000
FFE0
FFE0
ENDCHAR
STARTCHAR char167
ENCODING 167
SWIDTH 750 0
DWIDTH 15 0
BBX 10 10 1 10
BITMAP
3E00
F3C0
F3C0
F3C0
3E00
3E00
3E00
0000
FFC0
FFC0
ENDCHAR
STARTCHAR char168
ENCODING 168
SWIDTH 750 0
DWIDTH 15 0
BBX 12 15 0 4
BITMAP
1E00
1E00
1E00
0000
0000
0000
1E00
1E00
1E00
7800
E0F0
E0F0
E0F0
E0F0
7FE0
ENDCHAR
STARTCHAR char169
ENCODING 169
SWIDTH 750 0
DWIDTH 15 0
BBX 12 7 0 5
BITMAP
FFF0
FFF0
E000
E000
E000
E000
E000
ENDCHAR
STARTCHAR char170
ENCODING 170
SWIDTH 750 0
DWIDTH 15 0
BBX 12 7 0 5
BITMAP
FFF0
FFF0
00F0
00F0
00F0
00F0
00F0
ENDCHAR
STARTCHAR char171
ENCODING 171
SWIDTH 750 0
DWIDTH 15 0
BBX 12 20 0 0
BITMAP
E000
E000
E000
E0F0
E1E0
E1E0
E1E0
E700
1E00
1E00
7800
E7E0
80F0
80F0
80F0
01E0
0700
0700
1FF0
1FF0
ENDCHAR
STARTCHAR char172
ENCODING 172
SWIDTH 750 0
DWIDTH 15 0
BBX 12 20 0 0
BITMAP
E000
E000
E000
E0F0
E1E0
E1E0
E1E0
E700
1E00
1E00
78F0
E1F0
87F0
87F0
87F0
1FF0
00F0
00F0
00F0
00F0
ENDCHAR
STARTCHAR char173
ENCODING 173
SWIDTH 750 0
DWIDTH 15 0
BBX 8 15 3 4
BITMAP
38
38
38
00
00
00
38
38
38
FF
FF
FF
FF
FF
38
ENDCHAR
STARTCHAR char174
ENCODING 174
SWIDTH 750 0
DWIDTH 15 0
BBX 12 8 0 8
BITMAP
1EF0
1EF0
1EF0
79E0
E700
E700
79E0
1EF0
ENDCHAR
STARTCHAR char175
ENCODING 175
SWIDTH 750 0
DWIDTH 15 0
BBX 12 8 0 8
BITMAP
E700
E700
E700
79E0
1EF0
1EF0
79E0
E700
ENDCHAR
STARTCHAR char176
ENCODING 176
SWIDTH 750 0
DWIDTH 15 0
BBX 14 21 0 0
BITMAP
0018
0FD8
1FF0
3870
30F0
30F0
31B0
31B0
3330
3330
3330
3630
3630
3C30
3C30
3870
3FE0
6FC0
6000
FFFC
FFFC
ENDCHAR
STARTCHAR char177
ENCODING 177
SWIDTH 750 0
DWIDTH 15 0
BBX 14 20 0 0
BITMAP
0300
0700
1F00
3F00
3300
0300
0300
0300
0300
0300
0300
0300
0300
0300
0300
3FF0
3FF0
0000
FFFC
FFFC
ENDCHAR
STARTCHAR char178
ENCODING 178
SWIDTH 750 0
DWIDTH 15 0
BBX 14 20 0 0
BITMAP
07C0
0FE0
1C70
3830
3030
0030
0030
0070
00E0
01C0
0380
0700
0E00
1C00
3800
3FF0
3FF0
0000
FFFC
FFFC
ENDCHAR
STARTCHAR char179
ENCODING 179
SWIDTH 750 0
DWIDTH 15 0
BBX 14 20 0 0
BITMAP
0FC0
1FE0
3870
3030
0030
0030
0070
03E0
03E0
0070
0030
0030
3030
3030
3870
1FE0
0FC0
0000
FFFC
FFFC
ENDCHAR
STARTCHAR char180
ENCODING 180
SWIDTH 750 0
DWIDTH 15 0
BBX 14 20 0 0
BITMAP
01E0
03E0
07E0
0660
0C60
0C60
1860
3860
3060
3FF0
3FF0
0060
0060
0060
0060
0060
0060
0000
FFFC
FFFC
ENDCHAR
STARTCHAR char181
ENCODING 181
SWIDTH 750 0
DWIDTH 15 0
BBX 14 20 0 0
BITMAP
3FF0
3FF0
3000
3000
3000
3000
3FC0
3FE0
0070
0030
0030
0030
3030
3030
3870
1FE0
0FC0
0000
FFFC
FFFC
ENDCHAR
STARTCHAR char182
ENCODING 182
SWIDTH 750 0
DWIDTH 15 0
BBX 14 20 0 0
BITMAP
1FE0
3FF0
7038
6018
6000
6000
6000
6FE0
7FF0
7038
6018
6018
6018
6018
7038
3FF0
1FE0
0000
FFFC
FFFC
ENDCHAR
STARTCHAR char183
ENCODING 183
SWIDTH 750 0
DWIDTH 15 0
BBX 14 20 0 0
BITMAP
3FF0
3FF0
3030
0030
0030
0070
00E0
01C0
0180
0300
0300
0300
0600
0600
0600
0600
0600
0000
FFFC
FFFC
ENDCHAR
STARTCHAR char184
ENCODING 184
SWIDTH 750 0
DWIDTH 15 0
BBX 14 20 0 0
BITMAP
1FE0
3FF0
7038
6018
6018
6018
3030
3FF0
1FE0
3030
6018
6018
6018
6018
7038
3FF0
1FE0
0000
FFFC
FFFC
ENDCHAR
STARTCHAR char185
ENCODING 185
SWIDTH 750 0
DWIDTH 15 0
BBX 14 20 0 0
BITMAP
1FE0
3FF0
7038
6018
6018
6018
6018
6018
7038
3FF8
1FD8
0018
0018
6018
7038
3FF0
1FE0
0000
FFFC
FFFC
ENDCHAR
STARTCHAR char186
ENCODING 186
SWIDTH 750 0
DWIDTH 15 0
BBX 14 8 0 8
BITMAP
FFFC
FFFC
FFFC
FFFC
FFFC
FFFC
FFFC
FFFC
ENDCHAR
STARTCHAR char187
ENCODING 187
SWIDTH 750 0
DWIDTH 15 0
BBX 14 18 0 2
BITMAP
7800
7E00
7E00
7F00
FFE0
FFE0
FFE0
FFF0
FFFC
FFFC
FFF0
FFE0
7F00
7F00
7F00
7E00
7800
7800
ENDCHAR
STARTCHAR char188
ENCODING 188
SWIDTH 750 0
DWIDTH 15 0
BBX 12 12 0 9
BITMAP
1EF0
1EF0
1EF0
1EF0
1EF0
1EF0
1EF0
1EF0
FEF0
00F0
00F0
FFF0
ENDCHAR
STARTCHAR char189
ENCODING 189
SWIDTH 750 0
DWIDTH 15 0
BBX 12 12 0 9
BITMAP
1EF0
1EF0
1EF0
1EF0
1EF0
1EF0
1EF0
1EF0
1EF0
1EF0
1EF0
FFF0
ENDCHAR
STARTCHAR char190
ENCODING 190
SWIDTH 750 0
DWIDTH 15 0
BBX 8 12 0 9
BITMAP
07
07
07
07
07
07
07
07
FF
07
07
FF
ENDCHAR
STARTCHAR char191
ENCODING 191
SWIDTH 750 0
DWIDTH 15 0
BBX 8 10 0 0
BITMAP
FF
07
07
07
07
07
07
07
07
07
ENDCHAR
STARTCHAR char192
ENCODING 192
SWIDTH 750 0
DWIDTH 15 0
BBX 3 12 5 9
BITMAP
E0
E0
E0
E0
E0
E0
E0
E0
E0
E0
E0
E0
ENDCHAR
STARTCHAR char193
ENCODING 193
SWIDTH 750 0
DWIDTH 15 0
BBX 14 20 0 0
BITMAP
0300
0300
0300
0780
0780
06C0
0EC0
0CC0
1C60
1860
1FE0
3FF0
3030
3030
6018
6018
6018
0000
FFFC
FFFC
ENDCHAR
STARTCHAR char194
ENCODING 194
SWIDTH 750 0
DWIDTH 15 0
BBX 14 20 0 0
BITMAP
7FE0
7FF0
6018
6018
6018
6018
6018
7FF0
7FE0
6030
6018
6018
6018
6018
6018
7FF0
7FE0
0000
FFFC
FFFC
ENDCHAR
STARTCHAR char195
ENCODING 195
SWIDTH 750 0
DWIDTH 15 0
BBX 14 20 0 0
BITMAP
1FE0
3FF0
7838
6018
6000
6000
6000
6000
6000
6000
6000
6000
6018
6018
7838
3FF0
1FE0
0000
FFFC
FFFC
ENDCHAR
STARTCHAR char196
ENCODING 196
SWIDTH 750 0
DWIDTH 15 0
BBX 14 20 0 0
BITMAP
7FE0
7FF0
6038
6018
6018
6018
6018
6018
6018
6018
6018
6018
6018
6018
6038
7FF0
7FE0
0000
FFFC
FFFC
ENDCHAR
STARTCHAR char197
ENCODING 197
SWIDTH 750 0
DWIDTH 15 0
BBX 14 20 0 0
BITMAP
7FF8
7FF8
6000
6000
6000
6000
6000
7FE0
7FE0
6000
6000
6000
6000
6000
6000
7FF8
7FF8
0000
FFFC
FFFC
ENDCHAR
STARTCHAR char198
ENCODING 198
SWIDTH 750 0
DWIDTH 15 0
BBX 14 20 0 0
BITMAP
7FF8
7FF8
6000
6000
6000
6000
6000
7FE0
7FE0
6000
6000
6000
6000
6000
6000
6000
6000
0000
FFFC
FFFC
ENDCHAR
STARTCHAR char199
ENCODING 199
SWIDTH 750 0
DWIDTH 15 0
BBX 14 20 0 0
BITMAP
1FE0
3FF0
7838
6018
6000
6000
6000
6000
61F8
61F8
6018
6018
6018
6018
7838
3FF0
1FE0
0000
FFFC
FFFC
ENDCHAR
STARTCHAR char200
ENCODING 200
SWIDTH 750 0
DWIDTH 15 0
BBX 14 20 0 0
BITMAP
6018
6018
6018
6018
6018
6018
6018
6018
7FF8
7FF8
6018
6018
6018
6018
6018
6018
6018
0000
FFFC
FFFC
ENDCHAR
STARTCHAR char201
ENCODING 201
SWIDTH 750 0
DWIDTH 15 0
BBX 14 20 0 0
BITMAP
3FF0
3FF0
0300
0300
0300
0300
0300
0300
0300
0300
0300
0300
0300
0300
0300
3FF0
3FF0
0000
FFFC
FFFC
ENDCHAR
STARTCHAR char202
ENCODING 202
SWIDTH 750 0
DWIDTH 15 0
BBX 14 20 0 0
BITMAP
1FF8
1FF8
0060
0060
0060
0060
0060
0060
0060
0060
0060
0060
6060
6060
70E0
3FC0
1F80
0000
FFFC
FFFC
ENDCHAR
STARTCHAR char203
ENCODING 203
SWIDTH 750 0
DWIDTH 15 0
BBX 14 20 0 0
BITMAP
6018
6038
6070
60E0
61C0
6380
6700
7E00
7C00
7E00
6700
6380
61C0
60E0
6070
6038
6018
0000
FFFC
FFFC
ENDCHAR
STARTCHAR char204
ENCODING 204
SWIDTH 750 0
DWIDTH 15 0
BBX 14 20 0 0
BITMAP
6000
6000
6000
6000
6000
6000
6000
6000
6000
6000
6000
6000
6000
6000
6000
7FF0
7FF0
0000
FFFC
FFFC
ENDCHAR
STARTCHAR char205
ENCODING 205
SWIDTH 750 0
DWIDTH 15 0
BBX 14 20 0 0
BITMAP
6018
7038
7878
7CF8
6FD8
6798
6318
6018
6018
6018
6018
6018
6018
6018
6018
6018
6018
0000
FFFC
FFFC
ENDCHAR
STARTCHAR char206
ENCODING 206
SWIDTH 750 0
DWIDTH 15 0
BBX 14 20 0 0
BITMAP
6018
6018
7018
7818
7818
6C18
6C18
6618
6718
6318
6198
61D8
60F8
6078
6038
6018
6018
0000
FFFC
FFFC
ENDCHAR
STARTCHAR char207
ENCODING 207
SWIDTH 750 0
DWIDTH 15 0
BBX 14 20 0 0
BITMAP
1FE0
3FF0
7838
6018
6018
6018
6018
6018
6018
6018
6018
6018
6018
6018
7838
3FF0
1FE0
0000
FFFC
FFFC
ENDCHAR
STARTCHAR char208
ENCODING 208
SWIDTH 750 0
DWIDTH 15 0
BBX 14 20 0 0
BITMAP
7FE0
7FF0
6038
6018
6018
6018
6018
6018
6030
7FF0
7FC0
6000
6000
6000
6000
6000
6000
0000
FFFC
FFFC
ENDCHAR
STARTCHAR char209
ENCODING 209
SWIDTH 750 0
DWIDTH 15 0
BBX 14 20 0 0
BITMAP
1FE0
3FF0
7838
6018
6018
6018
6018
6018
6018
6318
6318
6398
61D8
60F8
7870
3FF8
1FD8
0000
FFFC
FFFC
ENDCHAR
STARTCHAR char210
ENCODING 210
SWIDTH 750 0
DWIDTH 15 0
BBX 14 20 0 0
BITMAP
7FE0
7FF0
6038
6018
6018
6018
6018
6018
6030
7FF0
7FE0
6060
6060
6030
6030
6018
6018
0000
FFFC
FFFC
ENDCHAR
STARTCHAR char211
ENCODING 211
SWIDTH 750 0
DWIDTH 15 0
BBX 14 20 0 0
BITMAP
1FE0
3FF0
7838
6018
6000
6000
7800
3F00
1FE0
03F0
0038
0018
6018
6018
7838
3FF0
1FE0
0000
FFFC
FFFC
ENDCHAR
STARTCHAR char212
ENCODING 212
SWIDTH 750 0
DWIDTH 15 0
BBX 14 20 0 0
BITMAP
7FF8
7FF8
0300
0300
0300
0300
0300
0300
0300
0300
0300
0300
0300
0300
0300
0300
0300
0000
FFFC
FFFC
ENDCHAR
STARTCHAR char213
ENCODING 213
SWIDTH 750 0
DWIDTH 15 0
BBX 14 20 0 0
BITMAP
6018
6018
6018
6018
6018
6018
6018
6018
6018
6018
6018
6018
6018
6018
3030
3FF0
1FE0
0000
FFFC
FFFC
ENDCHAR
STARTCHAR char214
ENCODING 214
SWIDTH 750 0
DWIDTH 15 0
BBX 14 20 0 0
BITMAP
6018
6018
6018
6018
7038
7038
3030
3030
3030
3870
1860
1860
0CC0
0FC0
0FC0
0300
0300
0000
FFFC
FFFC
ENDCHAR
STARTCHAR char215
ENCODING 215
SWIDTH 750 0
DWIDTH 15 0
BBX 14 20 0 0
BITMAP
6018
6018
6018
6018
6018
6018
6018
6018
6018
6018
6318
6798
7FF8
7FF8
7878
7038
6018
0000
FFFC
FFFC
ENDCHAR
STARTCHAR char216
ENCODING 216
SWIDTH 750 0
DWIDTH 15 0
BBX 14 20 0 0
BITMAP
6018
6018
3030
3030
1860
1860
0CC0
0FC0
0300
0FC0
0CC0
1860
1860
3030
3030
6018
6018
0000
FFFC
FFFC
ENDCHAR
STARTCHAR char217
ENCODING 217
SWIDTH 750 0
DWIDTH 15 0
BBX 14 20 0 0
BITMAP
6018
6018
3030
3030
1860
1860
0CC0
0FC0
0780
0300
0300
0300
0300
0300
0300
0300
0300
0000
FFFC
FFFC
ENDCHAR
STARTCHAR char218
ENCODING 218
SWIDTH 750 0
DWIDTH 15 0
BBX 14 20 0 0
BITMAP
7FF8
7FF8
0018
0018
0030
0060
00C0
0180
0300
0600
0C00
1800
3000
6000
6000
7FF8
7FF8
0000
FFFC
FFFC
ENDCHAR
STARTCHAR char219
ENCODING 219
SWIDTH 750 0
DWIDTH 15 0
BBX 12 15 0 4
BITMAP
7FE0
7FE0
E0F0
E0F0
E0F0
E0F0
E7F0
E7F0
E7F0
E7F0
E7E0
E000
E000
E000
7FE0
ENDCHAR
STARTCHAR char220
ENCODING 220
SWIDTH 750 0
DWIDTH 15 0
BBX 0 0 0 0
BITMAP
ENDCHAR
STARTCHAR char221
ENCODING 221
SWIDTH 750 0
DWIDTH 15 0
BBX 7 21 0 0
BITMAP
FE
FE
FE
FE
FE
FE
FE
FE
FE
FE
FE
FE
FE
FE
FE
FE
FE
FE
FE
FE
FE
ENDCHAR
STARTCHAR char222
ENCODING 222
SWIDTH 750 0
DWIDTH 15 0
BBX 2 21 5 0
BITMAP
C0
C0
C0
C0
C0
C0
C0
C0
C0
C0
C0
C0
C0
C0
C0
C0
C0
C0
C0
C0
C0
ENDCHAR
STARTCHAR char223
ENCODING 223
SWIDTH 750 0
DWIDTH 15 0
BBX 13 13 1 5
BITMAP
0200
0200
0700
0700
FFF8
7FF0
1FC0
1FC0
1FC0
3DE0
38E0
7070
4010
ENDCHAR
STARTCHAR char224
ENCODING 224
SWIDTH 750 0
DWIDTH 15 0
BBX 9 15 3 4
BITMAP
0800
1C00
3600
3600
6300
6300
C180
C180
C180
6300
6300
3600
3600
1C00
0800
ENDCHAR
STARTCHAR char225
ENCODING 225
SWIDTH 750 0
DWIDTH 15 0
BBX 13 13 1 5
BITMAP
0700
1FC0
3060
6030
4010
C218
C718
C218
4010
6030
3060
1FC0
0700
ENDCHAR
STARTCHAR char226
ENCODING 226
SWIDTH 750 0
DWIDTH 15 0
BBX 15 15 0 4
BITMAP
FFFE
FFFE
CFE6
D836
F01E
E00E
E10E
E38E
E10E
E00E
F01E
D836
CFE6
FFFE
FFFE
ENDCHAR
STARTCHAR char227
ENCODING 227
SWIDTH 750 0
DWIDTH 15 0
BBX 12 14 0 4
BITMAP
6000
3000
1800
1800
1800
FF80
FF80
1980
1980
1980
3180
6180
0FF0
0FF0
ENDCHAR
STARTCHAR char228
ENCODING 228
SWIDTH 750 0
DWIDTH 15 0
BBX 15 15 0 4
BITMAP
0100
0380
0380
0380
0380
0100
783C
FC7E
783C
0100
0380
0380
0380
0380
0100
ENDCHAR
STARTCHAR char229
ENCODING 229
SWIDTH 750 0
DWIDTH 15 0
BBX 15 15 0 4
BITMAP
0100
0380
0380
0380
0380
0380
7FFC
FFFE
7FFC
0380
0380
0380
0380
0380
0100
ENDCHAR
STARTCHAR char230
ENCODING 230
SWIDTH 750 0
DWIDTH 15 0
BBX 12 14 0 2
BITMAP
78F0
78F0
78F0
78F0
78F0
78F0
78F0
7FE0
7800
7800
7800
7800
E000
E000
ENDCHAR
STARTCHAR char231
ENCODING 231
SWIDTH 750 0
DWIDTH 15 0
BBX 12 12 0 4
BITMAP
7EF0
7EF0
7EF0
E7E0
0700
0700
0700
0700
0700
0700
0700
0700
ENDCHAR
STARTCHAR char232
ENCODING 232
SWIDTH 750 0
DWIDTH 15 0
BBX 11 15 1 4
BITMAP
FFE0
FFE0
0E00
3FC0
3FC0
3FC0
F1E0
F1E0
F1E0
F1E0
3FC0
0E00
0E00
0E00
FFE0
ENDCHAR
STARTCHAR char233
ENCODING 233
SWIDTH 750 0
DWIDTH 15 0
BBX 12 15 0 4
BITMAP
1F00
1F00
79E0
E0F0
E0F0
E0F0
E0F0
FFF0
FFF0
E0F0
E0F0
79E0
79E0
79E0
1F00
ENDCHAR
STARTCHAR char234
ENCODING 234
SWIDTH 750 0
DWIDTH 15 0
BBX 12 15 0 4
BITMAP
1F00
1F00
79E0
E0F0
E0F0
E0F0
E0F0
E0F0
E0F0
79E0
79E0
79E0
79E0
79E0
F9F0
ENDCHAR
STARTCHAR char235
ENCODING 235
SWIDTH 750 0
DWIDTH 15 0
BBX 11 15 1 4
BITMAP
0FE0
0FE0
3C00
0E00
0E00
0E00
03C0
3FE0
3FE0
F1E0
F1E0
F1E0
F1E0
F1E0
3FC0
ENDCHAR
STARTCHAR char236
ENCODING 236
SWIDTH 750 0
DWIDTH 15 0
BBX 11 5 1 8
BITMAP
FFE0
0000
0000
0000
FFE0
ENDCHAR
STARTCHAR char237
ENCODING 237
SWIDTH 750 0
DWIDTH 15 0
BBX 15 15 0 3
BITMAP
07C0
1930
2108
4004
4004
8002
8002
E00E
8002
8002
4004
4004
2108
1930
07C0
ENDCHAR
STARTCHAR char238
ENCODING 238
SWIDTH 750 0
DWIDTH 15 0
BBX 15 15 0 3
BITMAP
0280
0280
0280
0280
0280
0280
FEFE
0000
FEFE
0280
0280
0280
0280
0280
0280
ENDCHAR
STARTCHAR char239
ENCODING 239
SWIDTH 750 0
DWIDTH 15 0
BBX 15 15 0 3
BITMAP
0100
0100
0100
0100
0100
0100
0100
FFFE
0100
0100
0100
0100
0100
0100
0100
ENDCHAR
STARTCHAR char240
ENCODING 240
SWIDTH 750 0
DWIDTH 15 0
BBX 11 11 2 6
BITMAP
0400
0A00
0A00
1100
1100
2080
2080
4040
4040
8020
8020
ENDCHAR
STARTCHAR char241
ENCODING 241
SWIDTH 750 0
DWIDTH 15 0
BBX 11 11 2 6
BITMAP
0400
0A00
0A00
1100
1100
2080
2080
4440
4040
8420
8420
ENDCHAR
STARTCHAR char242
ENCODING 242
SWIDTH 750 0
DWIDTH 15 0
BBX 5 11 5 6
BITMAP
20
A8
70
A8
20
20
20
20
20
20
20
ENDCHAR
STARTCHAR char243
ENCODING 243
SWIDTH 750 0
DWIDTH 15 0
BBX 5 5 5 9
BITMAP
20
A8
70
A8
20
ENDCHAR
STARTCHAR char244
ENCODING 244
SWIDTH 750 0
DWIDTH 15 0
BBX 11 11 2 6
BITMAP
0400
1F00
2080
4040
4040
C060
4040
4040
2080
1F00
0400
ENDCHAR
STARTCHAR char245
ENCODING 245
SWIDTH 750 0
DWIDTH 15 0
BBX 9 9 3 7
BITMAP
3E00
4100
9C80
A280
A280
A280
9C80
4100
3E00
ENDCHAR
STARTCHAR char246
ENCODING 246
SWIDTH 750 0
DWIDTH 15 0
BBX 11 11 2 6
BITMAP
0400
1F00
2080
4E40
5140
D160
5140
4E40
2080
1F00
0400
ENDCHAR
STARTCHAR char247
ENCODING 247
SWIDTH 750 0
DWIDTH 15 0
BBX 9 9 3 7
BITMAP
3E00
4100
8080
8080
8080
8080
8080
4100
3E00
ENDCHAR
STARTCHAR char248
ENCODING 248
SWIDTH 750 0
DWIDTH 15 0
BBX 11 11 2 6
BITMAP
8420
4440
2480
1F00
1100
F1E0
1100
1F00
2480
4440
8420
ENDCHAR
STARTCHAR char249
ENCODING 249
SWIDTH 750 0
DWIDTH 15 0
BBX 9 9 3 7
BITMAP
3E00
4100
9480
9480
9C80
9480
9480
4100
3E00
ENDCHAR
STARTCHAR char250
ENCODING 250
SWIDTH 750 0
DWIDTH 15 0
BBX 9 9 3 7
BITMAP
0800
0800
0800
0800
FF80
0800
0800
0800
0800
ENDCHAR
STARTCHAR char251
ENCODING 251
SWIDTH 750 0
DWIDTH 15 0
BBX 9 9 3 7
BITMAP
8080
4100
2200
1400
0800
1400
2200
4100
8080
ENDCHAR
STARTCHAR char252
ENCODING 252
SWIDTH 750 0
DWIDTH 15 0
BBX 5 5 5 9
BITMAP
70
F8
F8
F8
70
ENDCHAR
STARTCHAR char253
ENCODING 253
SWIDTH 750 0
DWIDTH 15 0
BBX 9 9 3 7
BITMAP
3E00
4100
9C80
BE80
BE80
BE80
9C80
4100
3E00
ENDCHAR
STARTCHAR char254
ENCODING 254
SWIDTH 750 0
DWIDTH 15 0
BBX 9 9 3 7
BITMAP
FF80
8080
8080
8080
8080
8080
8080
8080
FF80
ENDCHAR
STARTCHAR char255
ENCODING 255
SWIDTH 750 0
DWIDTH 15 0
BBX 0 0 0 0
BITMAP
ENDCHAR
ENDFONT
